<svg width="34" height="35" viewBox="0 0 34 35" fill="none" xmlns="http://www.w3.org/2000/svg">
<path d="M16.9833 0.421051C7.78331 0.421051 0.333313 8.08421 0.333313 17.5263C0.333313 26.9684 7.78331 34.6316 16.9833 34.6316C26.2 34.6316 33.6666 26.9684 33.6666 17.5263C33.6666 8.08421 26.2 0.421051 16.9833 0.421051ZM17 31.2105C9.63331 31.2105 3.66665 25.0868 3.66665 17.5263C3.66665 9.96579 9.63331 3.8421 17 3.8421C24.3666 3.8421 30.3333 9.96579 30.3333 17.5263C30.3333 25.0868 24.3666 31.2105 17 31.2105Z" fill="#247BA0"/>
<path d="M17.8333 8.97369H15.3333V19.2369L24.0833 24.625L25.3333 22.5211L17.8333 17.954V8.97369Z" fill="#247BA0"/>
<path d="M16.9833 0.421051C7.78331 0.421051 0.333313 8.08421 0.333313 17.5263C0.333313 26.9684 7.78331 34.6316 16.9833 34.6316C26.2 34.6316 33.6666 26.9684 33.6666 17.5263C33.6666 8.08421 26.2 0.421051 16.9833 0.421051ZM17 31.2105C9.63331 31.2105 3.66665 25.0868 3.66665 17.5263C3.66665 9.96579 9.63331 3.8421 17 3.8421C24.3666 3.8421 30.3333 9.96579 30.3333 17.5263C30.3333 25.0868 24.3666 31.2105 17 31.2105Z" fill="#247BA0"/>
<path d="M17.8333 8.97369H15.3333V19.2369L24.0833 24.625L25.3333 22.5211L17.8333 17.954V8.97369Z" fill="#247BA0"/>
</svg>
